<?xml version="1.0" encoding="UTF-8"?>
<svg id="Layer_2" data-name="Layer 2" xmlns="http://www.w3.org/2000/svg" viewBox="0 0 1545.68 177.92">
  <g id="Layer_1-2" data-name="Layer 1">
    <g>
      <g>
        <path d="M1.5,173.4v-8.11c0-4.16,3.38-7.54,7.54-7.54H52.04c8.48,0,16.43-3.35,22.37-9.43,5.94-6.08,9.11-14.1,8.92-22.59-.38-16.86-14.71-30.58-31.95-30.58H9.61c-4.47,0-8.11-3.64-8.11-8.11,0-4.16,3.38-7.54,7.54-7.54H49.29c7.92,0,15.33-3.14,20.87-8.83,5.53-5.69,8.46-13.19,8.23-21.12-.44-15.59-13.81-28.27-29.79-28.27H9.04c-4.16,0-7.54-3.38-7.54-7.54V5.63H48.44c25,0,45.46,19.95,45.61,44.48,.09,14.23-6.56,27.54-17.9,36.06,14.84,8.88,23.52,24.86,22.8,42.27-1.05,25.21-22.04,44.96-47.79,44.96H1.5Z"/>
        <path d="M48.44,7.13c23.93,0,43.96,19.06,44.11,42.99,.09,15.06-7.56,28.38-19.19,36.19,14.87,7.93,24.84,23.89,24.09,42.06-1.02,24.49-21.79,43.53-46.29,43.53H3v-6.61c0-3.34,2.7-6.04,6.04-6.04H52.04c18.34,0,33.21-15.13,32.79-33.56-.4-17.93-15.52-32.05-33.45-32.05H9.61c-3.65,0-6.61-2.96-6.61-6.61,0-3.34,2.7-6.04,6.04-6.04H49.29c17.17,0,31.09-14.21,30.6-31.49-.47-16.67-14.61-29.73-31.29-29.73H9.04c-3.34,0-6.04-2.7-6.04-6.04V7.13H48.44m0-3H0V13.74c0,4.98,4.05,9.04,9.04,9.04H48.6c15.18,0,27.88,12.03,28.3,26.81,.21,7.52-2.56,14.63-7.81,20.03-5.25,5.4-12.28,8.38-19.79,8.38H9.04c-4.98,0-9.04,4.05-9.04,9.04,0,5.3,4.31,9.61,9.61,9.61H51.39c16.43,0,30.09,13.06,30.45,29.12,.18,8.08-2.83,15.72-8.49,21.51-5.66,5.79-13.23,8.98-21.3,8.98H9.04c-4.98,0-9.04,4.05-9.04,9.04v9.61H51.16c12.67,0,24.75-4.75,34-13.39,9.34-8.71,14.77-20.44,15.29-33.01,.39-9.33-1.89-18.5-6.6-26.51-3.77-6.42-8.94-11.87-15.11-15.95,10.68-8.82,16.89-21.94,16.8-35.93-.15-25.35-21.28-45.97-47.11-45.97h0Z"/>
      </g>
      <g>
        <path d="M191.75,21.04V12.6c0-4.16,3.38-7.54,7.54-7.54h98.27V13.5c0,4.16-3.38,7.54-7.54,7.54h-98.27Z"/>
        <path d="M296.06,6.56v6.94c0,3.34-2.7,6.04-6.04,6.04h-96.77v-6.94c0-3.34,2.7-6.04,6.04-6.04h96.77m3-3h-99.77c-4.98,0-9.04,4.05-9.04,9.04v9.94h99.77c4.98,0,9.04-4.05,9.04-9.04V3.56h0Z"/>
      </g>
      <g>
        <path d="M200.2,94.89c-4.66,0-8.44-3.79-8.44-8.44,0-4.16,3.38-7.54,7.54-7.54h81.52c4.66,0,8.44,3.79,8.44,8.44,0,4.16-3.38,7.54-7.54,7.54h-81.52Z"/>
        <path d="M280.81,80.4c3.84,0,6.94,3.11,6.94,6.94,0,3.34-2.7,6.04-6.04,6.04h-81.52c-3.84,0-6.94-3.11-6.94-6.94,0-3.34,2.7-6.04,6.04-6.04h81.52m0-3h-81.52c-4.98,0-9.04,4.05-9.04,9.04,0,5.48,4.46,9.94,9.94,9.94h81.52c4.98,0,9.04-4.05,9.04-9.04,0-5.48-4.46-9.94-9.94-9.94h0Z"/>
      </g>
      <g>
        <path d="M199.29,173.4c-4.16,0-7.54-3.38-7.54-7.54v-8.45h98.27c4.16,0,7.54,3.38,7.54,7.54v8.45h-98.27Z"/>
        <path d="M290.02,158.91c3.34,0,6.04,2.7,6.04,6.04v6.95h-96.77c-3.34,0-6.04-2.7-6.04-6.04v-6.95h96.77m0-3h-99.77v9.95c0,4.98,4.05,9.04,9.04,9.04h99.77v-9.95c0-4.98-4.05-9.04-9.04-9.04h0Z"/>
      </g>
      <g>
        <path d="M393.25,21.54V12.9c0-4.16,3.38-7.54,7.54-7.54h96.64V14.01c0,4.16-3.38,7.54-7.54,7.54h-96.64Z"/>
        <path d="M495.93,6.86v7.15c0,3.34-2.7,6.04-6.04,6.04h-95.14v-7.15h0c0-3.33,2.7-6.04,6.04-6.04h95.14m3-3h-98.14c-3.93,0-7.29,2.52-8.53,6.04h-.51v3s0,7.15,0,7.15v3h98.14c4.98,0,9.04-4.05,9.04-9.04V3.86h0Z"/>
      </g>
      <g>
        <path d="M445.47,173.4c-4.54,0-8.23-3.69-8.23-8.23V56.44c0-4.46,3.63-8.09,8.09-8.09s8.09,3.63,8.09,8.09v109c0,4.39-3.57,7.96-7.96,7.96Z"/>
        <path d="M445.34,49.85c3.64,0,6.59,2.95,6.59,6.59v109c0,3.57-2.89,6.46-6.46,6.46s-6.73-3.01-6.73-6.73V56.44c0-3.64,2.95-6.59,6.59-6.59h0m0-3c-5.29,0-9.59,4.3-9.59,9.59v108.73c0,5.36,4.36,9.73,9.73,9.73s9.46-4.24,9.46-9.46V56.44c0-5.29-4.3-9.59-9.59-9.59h0Z"/>
      </g>
      <g>
        <path d="M659.58,173.58c-4.61,0-8.36-3.75-8.36-8.36,0-4.37,3.56-7.93,7.93-7.93h32.82s-43.53-112.82-43.53-112.82c-1.25-3.23-4.11-4.38-6.38-4.38s-5.06,1.12-6.34,4.28l-50.23,124.31c-1.16,2.86-3.9,4.72-6.99,4.72h-12.48L632.02,10.06c1.16-2.86,3.9-4.71,6.99-4.71h6.23c3.01,0,5.73,1.79,6.92,4.55l64.41,163.68h-56.99Z"/>
        <path d="M645.23,6.85c2.41,0,4.59,1.43,5.54,3.65l63.59,161.59h-54.79c-3.79,0-6.86-3.07-6.86-6.86,0-3.55,2.88-6.43,6.43-6.43h35.01s-44.32-114.86-44.32-114.86c-1.37-3.55-4.58-5.34-7.78-5.34s-6.32,1.73-7.73,5.21l-50.23,124.31c-.92,2.28-3.14,3.78-5.6,3.78h-10.26L633.41,10.62c.92-2.28,3.14-3.78,5.6-3.78h6.23m0-3h-6.23c-3.7,0-6.99,2.22-8.38,5.65l-65.16,161.27-1.67,4.12h14.7c3.7,0,6.99-2.22,8.38-5.65l50.23-124.31c.84-2.09,2.69-3.34,4.95-3.34,1.77,0,4.01,.9,4.98,3.42l42.74,110.78h-30.63c-5.2,0-9.43,4.23-9.43,9.43s4.42,9.86,9.86,9.86h54.79s4.4,0,4.4,0l-1.61-4.1L653.57,9.39l-.02-.05-.02-.04c-1.43-3.31-4.69-5.46-8.3-5.46h0Z"/>
      </g>
      <g>
        <g>
          <path d="M927.79,173.4c-2.37,0-4.64-1.14-6.05-3.04l-95.95-129.24c-.75-1.01-1.83-1.57-3.05-1.57-1.92,0-3.91,1.45-3.91,3.87v122.28c0,4.16-3.38,7.54-7.54,7.54h-9.29V5.35h14.39c2.37,0,4.64,1.14,6.05,3.04l91.05,122.63c.75,1.01,1.83,1.57,3.05,1.57h0c1,0,1.99-.38,2.72-1.05,.55-.5,1.2-1.4,1.2-2.82v-60.02c0-4.16,3.38-7.54,7.54-7.54h9.29v112.23h-9.49Z"/>
          <path d="M816.39,6.85c1.91,0,3.71,.9,4.85,2.44l91.05,122.63c1.12,1.5,2.69,2.18,4.25,2.18,2.74,0,5.41-2.08,5.41-5.37v-60.02c0-3.34,2.7-6.04,6.04-6.04h7.79v109.23h-7.99c-1.91,0-3.71-.9-4.85-2.44l-95.95-129.24c-1.12-1.5-2.69-2.18-4.25-2.18-2.74,0-5.41,2.08-5.41,5.37v122.28c0,3.34-2.7,6.04-6.04,6.04h-7.79V6.85h12.89m0-3h-15.89V174.74h10.79c4.98,0,9.04-4.05,9.04-9.04V43.42c0-.7,.24-1.28,.71-1.71,.45-.42,1.07-.66,1.7-.66,.51,0,1.25,.17,1.84,.96l95.95,129.24c1.7,2.29,4.41,3.65,7.26,3.65h10.99V59.66h-10.79c-4.98,0-9.04,4.05-9.04,9.04v60.02c0,1.73-1.48,2.37-2.41,2.37-.51,0-1.25-.17-1.84-.96L823.65,7.5c-1.7-2.29-4.41-3.65-7.26-3.65h0Z"/>
        </g>
        <g>
          <path d="M1037.25,21.04V12.6c0-4.16,3.38-7.54,7.54-7.54h98.27V13.5c0,4.16-3.38,7.54-7.54,7.54h-98.27Z"/>
          <path d="M1141.56,6.56v6.94c0,3.34-2.7,6.04-6.04,6.04h-96.77v-6.94c0-3.34,2.7-6.04,6.04-6.04h96.77m3-3h-99.77c-4.98,0-9.04,4.05-9.04,9.04v9.94h99.77c4.98,0,9.04-4.05,9.04-9.04V3.56h0Z"/>
        </g>
        <g>
          <path d="M1045.69,94.89c-4.66,0-8.44-3.79-8.44-8.44,0-4.16,3.38-7.54,7.54-7.54h81.52c4.66,0,8.44,3.79,8.44,8.44,0,4.16-3.38,7.54-7.54,7.54h-81.52Z"/>
          <path d="M1126.31,80.4c3.84,0,6.94,3.11,6.94,6.94,0,3.34-2.7,6.04-6.04,6.04h-81.52c-3.84,0-6.94-3.11-6.94-6.94,0-3.34,2.7-6.04,6.04-6.04h81.52m0-3h-81.52c-4.98,0-9.04,4.05-9.04,9.04,0,5.48,4.46,9.94,9.94,9.94h81.52c4.98,0,9.04-4.05,9.04-9.04,0-5.48-4.46-9.94-9.94-9.94h0Z"/>
        </g>
        <g>
          <path d="M1044.79,173.4c-4.16,0-7.54-3.38-7.54-7.54v-8.45h98.27c4.16,0,7.54,3.38,7.54,7.54v8.44h-98.27Z"/>
          <path d="M1135.52,158.91c3.33,0,6.04,2.7,6.04,6.04v6.94h-96.77c-3.33,0-6.04-2.7-6.04-6.04v-6.95h96.77m0-3h-99.77v9.95c0,4.98,4.05,9.04,9.04,9.04h99.77v-9.94c0-4.98-4.05-9.04-9.04-9.04h0Z"/>
        </g>
        <g>
          <path d="M1294.07,176.42c-24.09,0-46.02-11.38-55.88-28.99l-.73-1.31,8.59-4.81c1.13-.63,2.41-.97,3.7-.97,2.31,0,4.44,1.03,5.84,2.82,7.93,10.09,22.67,16.36,38.47,16.36,25.63,0,41.54-14.31,44.02-28.44,2.33-13.28-6.87-25.04-24.6-31.44-5.26-1.9-10.78-3.28-16.61-4.75l-2.74-.69c-1.98-.5-3.64-1.75-4.67-3.52-1.03-1.77-1.3-3.82-.75-5.79l2.46-8.95,1.45,.4c2.69,.74,5.49,1.44,8.2,2.12,6.1,1.53,12.31,3.08,18.41,5.28,30.72,11.1,38.48,33.23,35.5,50.25-3.69,21.08-25.71,42.42-60.66,42.42Z"/>
          <path d="M1292.22,77.78c2.74,.75,5.58,1.46,8.33,2.15,5.98,1.5,12.15,3.04,18.17,5.22,29.84,10.78,37.41,32.16,34.53,48.58-3.58,20.47-25.06,41.18-59.18,41.18-23.55,0-44.97-11.08-54.57-28.22l7.28-4.08c.93-.52,1.96-.78,2.97-.78,1.77,0,3.51,.77,4.67,2.25,8.19,10.42,23.16,16.93,39.65,16.93,26.46,0,42.91-14.93,45.5-29.68,2.46-14.06-7.09-26.44-25.57-33.11-5.35-1.93-10.92-3.33-16.82-4.81-.88-.22-1.77-.44-2.67-.67-3.28-.83-5.25-4.19-4.35-7.46l2.06-7.51m-2.1-3.69l-.8,2.89-2.06,7.51c-.65,2.36-.33,4.83,.9,6.94,1.23,2.12,3.22,3.62,5.6,4.22,.74,.19,1.49,.37,2.23,.56l.45,.11,.06,.02c5.8,1.45,11.28,2.83,16.47,4.7,16.99,6.14,25.82,17.27,23.63,29.77-2.37,13.52-17.74,27.2-42.54,27.2-15.35,0-29.64-6.05-37.29-15.79-1.69-2.16-4.25-3.39-7.02-3.39-1.55,0-3.08,.4-4.44,1.16l-7.28,4.08-2.62,1.47,1.47,2.62c10.12,18.08,32.57,29.75,57.19,29.75,35.78,0,58.34-21.97,62.14-43.67,3.08-17.62-4.88-40.51-36.47-51.92-6.17-2.23-12.42-3.79-18.46-5.3l-.09-.02c-2.7-.68-5.5-1.38-8.17-2.11l-2.89-.8h0Z"/>
        </g>
        <g>
          <path d="M1252.74,44.08c-.42,0-.84-.04-1.26-.11l-9.83-1.66,.25-1.48c1.83-10.79,8.32-21.09,17.37-27.57,10.6-7.58,24.27-11.76,38.49-11.76,4.96,0,9.93,.51,14.77,1.52,16.46,3.43,30.15,12.5,37.56,24.88l.77,1.29-8.47,5.07c-1.17,.7-2.52,1.07-3.88,1.07-2.21,0-4.28-.96-5.69-2.63-5.43-6.42-13.85-11.09-23.73-13.14-3.74-.78-7.58-1.17-11.4-1.17-10.66,0-20.81,3.06-28.58,8.62-4.06,2.9-7.45,7.33-9.29,12.15-1.13,2.95-3.97,4.92-7.07,4.92Z"/>
          <path d="M1297.76,3c4.82,0,9.67,.49,14.46,1.49,16.06,3.35,29.39,12.16,36.58,24.19l-7.19,4.3c-.97,.58-2.05,.86-3.11,.86-1.7,0-3.38-.72-4.55-2.09-5.61-6.63-14.3-11.5-24.57-13.64-3.89-.81-7.82-1.21-11.71-1.21-10.85,0-21.33,3.09-29.45,8.9-4.37,3.12-7.89,7.79-9.82,12.83-.92,2.4-3.18,3.96-5.67,3.96-.33,0-.67-.03-1-.08l-8.35-1.41c1.76-10.41,8.03-20.35,16.76-26.6,10.47-7.49,23.87-11.48,37.62-11.48m0-3c-14.53,0-28.51,4.28-39.36,12.04-9.36,6.7-16.08,17.37-17.97,28.53l-.5,2.96,2.96,.5,8.35,1.41c.5,.08,1,.13,1.51,.13,3.72,0,7.12-2.37,8.47-5.89,1.74-4.55,4.94-8.73,8.77-11.47,7.52-5.38,17.36-8.34,27.71-8.34,3.72,0,7.45,.38,11.1,1.14,9.55,1.99,17.67,6.48,22.89,12.64,1.7,2.01,4.19,3.16,6.84,3.16,1.64,0,3.24-.44,4.65-1.28l7.19-4.3,2.58-1.54-1.54-2.58c-7.62-12.74-21.66-22.07-38.54-25.58-4.94-1.03-10.01-1.55-15.07-1.55h0Z"/>
        </g>
        <g>
          <path d="M1440,21.54V12.9c0-4.16,3.39-7.54,7.54-7.54h96.64V14.01c0,4.16-3.38,7.54-7.54,7.54h-96.64Z"/>
          <path d="M1542.68,6.86v7.15c0,3.34-2.7,6.04-6.04,6.04h-95.14v-7.15h0c0-3.33,2.7-6.04,6.04-6.04h95.14m3-3h-98.14c-3.93,0-7.29,2.52-8.53,6.04h-.51v3s0,7.15,0,7.15v3h98.14c4.98,0,9.04-4.05,9.04-9.04V3.86h0Z"/>
        </g>
        <g>
          <path d="M1492.5,173.4c-4.69,0-8.5-3.81-8.5-8.5V55.89c0-4.16,3.38-7.54,7.54-7.54,4.77,0,8.65,3.88,8.65,8.65v108.72c0,4.24-3.45,7.68-7.68,7.68Z"/>
          <path d="M1491.53,49.85c3.95,0,7.15,3.2,7.15,7.15v108.72c0,3.42-2.77,6.18-6.18,6.18h0c-3.87,0-7-3.13-7-7V55.89c0-3.34,2.7-6.04,6.04-6.04m0-3c-4.98,0-9.04,4.05-9.04,9.04v109.01c0,5.51,4.49,10,10,10,5.06,0,9.18-4.12,9.18-9.18V57c0-5.59-4.55-10.15-10.15-10.15h0Z"/>
        </g>
      </g>
    </g>
  </g>
</svg>